# Blender v2.90.1 OBJ File: 'tower1.blend'
# www.blender.org
o Cube_Cube.002
v 0.117154 0.193066 0.252652
v 0.385250 1.675381 -0.003475
v 0.105574 0.169905 -0.717692
v 0.385250 1.675381 -0.438016
v 1.075919 0.193066 0.252652
v 0.819792 1.675381 -0.003475
v 1.075919 0.193066 -0.706112
v 0.819792 1.675381 -0.438016
v 0.605799 1.456430 -0.022121
v 0.602944 1.483637 0.054651
v 0.597886 1.457333 -0.022736
v 0.595030 1.484540 0.054036
v 0.589919 1.456760 -0.022829
v 0.587063 1.483968 0.053943
v 0.582204 1.454734 -0.022398
v 0.579348 1.481941 0.054374
v 0.575037 1.451332 -0.021459
v 0.572181 1.478539 0.055313
v 0.568695 1.446684 -0.020048
v 0.565839 1.473891 0.056724
v 0.563420 1.440970 -0.018219
v 0.560565 1.468177 0.058553
v 0.559416 1.434409 -0.016043
v 0.556561 1.461616 0.060729
v 0.556837 1.427253 -0.013603
v 0.553981 1.454460 0.063169
v 0.555781 1.419777 -0.010993
v 0.552925 1.446985 0.065780
v 0.556289 1.412269 -0.008313
v 0.553433 1.439476 0.068459
v 0.558342 1.405016 -0.005666
v 0.555486 1.432224 0.071106
v 0.561860 1.398299 -0.003155
v 0.559004 1.425506 0.073617
v 0.566709 1.392374 -0.000875
v 0.563853 1.419581 0.075897
v 0.572702 1.387469 0.001086
v 0.569846 1.414677 0.077858
v 0.579609 1.383774 0.002653
v 0.576753 1.410981 0.079425
v 0.587164 1.381430 0.003765
v 0.584309 1.408637 0.080537
v 0.595078 1.380526 0.004379
v 0.592222 1.407734 0.081151
v 0.603045 1.381099 0.004472
v 0.600190 1.408306 0.081245
v 0.610760 1.383125 0.004041
v 0.607905 1.410332 0.080814
v 0.617927 1.386528 0.003102
v 0.615071 1.413735 0.079874
v 0.624269 1.391175 0.001691
v 0.621414 1.418382 0.078463
v 0.629544 1.396889 -0.000138
v 0.626688 1.424096 0.076635
v 0.633548 1.403450 -0.002314
v 0.630692 1.430658 0.074458
v 0.636127 1.410606 -0.004754
v 0.633271 1.437814 0.072018
v 0.637183 1.418082 -0.007364
v 0.634327 1.445289 0.069408
v 0.636675 1.425591 -0.010044
v 0.633819 1.452798 0.066728
v 0.634622 1.432843 -0.012690
v 0.631767 1.460050 0.064082
v 0.631104 1.439561 -0.015202
v 0.628248 1.466768 0.061570
v 0.626255 1.445486 -0.017482
v 0.623399 1.472693 0.059290
v 0.620262 1.450390 -0.019443
v 0.617406 1.477597 0.057329
v 0.613355 1.454085 -0.021010
v 0.610499 1.481293 0.055763
v 0.586807 1.637381 0.488478
v 0.578894 1.638284 0.487864
v 0.570926 1.637711 0.487770
v 0.563211 1.635685 0.488201
v 0.556045 1.632282 0.489141
v 0.549702 1.627635 0.490552
v 0.544428 1.621921 0.492381
v 0.540424 1.615360 0.494557
v 0.537844 1.608204 0.496997
v 0.536788 1.600728 0.499607
v 0.537296 1.593220 0.502287
v 0.539349 1.585967 0.504933
v 0.542868 1.579249 0.507445
v 0.547716 1.573325 0.509725
v 0.553710 1.568420 0.511686
v 0.560617 1.564725 0.513252
v 0.568172 1.562380 0.514364
v 0.576085 1.561477 0.514979
v 0.584053 1.562050 0.515072
v 0.591768 1.564076 0.514641
v 0.598934 1.567478 0.513702
v 0.605277 1.572126 0.512291
v 0.610551 1.577840 0.510462
v 0.614555 1.584401 0.508286
v 0.617135 1.591557 0.505846
v 0.618191 1.599033 0.503236
v 0.617682 1.606541 0.500556
v 0.615630 1.613794 0.497909
v 0.612111 1.620512 0.495398
v 0.607262 1.626436 0.493118
v 0.601269 1.631341 0.491157
v 0.594362 1.635036 0.489590
vt 0.375000 0.000000
vt 0.625000 0.250000
vt 0.375000 0.250000
vt 0.375000 0.500000
vt 0.625000 0.500000
vt 0.375000 0.750000
vt 0.625000 1.000000
vt 0.375000 1.000000
vt 0.125000 0.750000
vt 0.125000 0.500000
vt 0.875000 0.500000
vt 0.625000 0.750000
vt 1.000000 0.500000
vt 0.968750 1.000000
vt 0.968750 0.500000
vt 0.937500 0.500000
vt 0.906250 1.000000
vt 0.906250 0.500000
vt 0.875000 1.000000
vt 0.875000 0.500000
vt 0.843750 1.000000
vt 0.843750 0.500000
vt 0.812500 1.000000
vt 0.812500 0.500000
vt 0.781250 1.000000
vt 0.781250 0.500000
vt 0.750000 0.500000
vt 0.718750 1.000000
vt 0.718750 0.500000
vt 0.687500 0.500000
vt 0.687500 1.000000
vt 0.656250 0.500000
vt 0.656250 1.000000
vt 0.625000 0.500000
vt 0.625000 1.000000
vt 0.593750 0.500000
vt 0.593750 1.000000
vt 0.562500 0.500000
vt 0.562500 1.000000
vt 0.531250 0.500000
vt 0.500000 1.000000
vt 0.500000 0.500000
vt 0.468750 1.000000
vt 0.468750 0.500000
vt 0.437500 0.500000
vt 0.406250 1.000000
vt 0.406250 0.500000
vt 0.375000 0.500000
vt 0.343750 1.000000
vt 0.343750 0.500000
vt 0.312500 0.500000
vt 0.312500 1.000000
vt 0.281250 0.500000
vt 0.281250 1.000000
vt 0.250000 0.500000
vt 0.250000 1.000000
vt 0.218750 0.500000
vt 0.218750 1.000000
vt 0.187500 0.500000
vt 0.187500 1.000000
vt 0.156250 0.500000
vt 0.125000 1.000000
vt 0.125000 0.500000
vt 0.093750 0.500000
vt 0.093750 1.000000
vt 0.062500 0.500000
vt 0.843750 1.000000
vt 0.812500 1.000000
vt 0.062500 1.000000
vt 0.031250 0.500000
vt 0.031250 1.000000
vt 0.000000 0.500000
vt 0.703179 0.485389
vt 0.985388 0.296822
vt 0.796822 0.014612
vt 0.341844 0.471731
vt 0.028269 0.341844
vt 0.158156 0.028269
vt 0.531250 1.000000
vt 0.531250 1.000000
vt 0.250000 1.000000
vt 0.937500 1.000000
vt 0.968750 1.000000
vt 0.937500 1.000000
vt 0.687500 1.000000
vt 0.656250 1.000000
vt 0.375000 1.000000
vt 0.406250 1.000000
vt 0.375000 1.000000
vt 0.093750 1.000000
vt 0.781250 1.000000
vt 0.500000 1.000000
vt 0.218750 1.000000
vt 0.906250 1.000000
vt 0.625000 1.000000
vt 0.343750 1.000000
vt 0.062500 1.000000
vt 0.750000 1.000000
vt 0.750000 1.000000
vt 0.468750 1.000000
vt 0.187500 1.000000
vt 0.875000 1.000000
vt 0.593750 1.000000
vt 0.312500 1.000000
vt 0.031250 1.000000
vt 0.718750 1.000000
vt 0.437500 1.000000
vt 0.437500 1.000000
vt 0.156250 1.000000
vt 0.156250 1.000000
vt 0.562500 1.000000
vt 0.281250 1.000000
vt 1.000000 1.000000
vt 0.000000 1.000000
vt 0.000000 1.000000
vt 0.125000 1.000000
vt 0.625000 0.000000
vt 0.875000 0.750000
vt 0.750000 0.490000
vt 0.796822 0.485388
vt 0.841844 0.471731
vt 0.883337 0.449553
vt 0.919706 0.419706
vt 0.949553 0.383337
vt 0.971731 0.341844
vt 0.990000 0.250000
vt 0.949553 0.116663
vt 0.985388 0.203178
vt 0.971731 0.158156
vt 0.919706 0.080294
vt 0.883337 0.050447
vt 0.841844 0.028269
vt 0.750000 0.010000
vt 0.703178 0.014612
vt 0.658156 0.028269
vt 0.616663 0.050447
vt 0.580294 0.080294
vt 0.514611 0.203179
vt 0.550447 0.116663
vt 0.528269 0.158156
vt 0.510000 0.250000
vt 0.514612 0.296822
vt 0.528269 0.341844
vt 0.550447 0.383337
vt 0.580295 0.419706
vt 0.616663 0.449553
vt 0.658156 0.471731
vt 0.296822 0.485388
vt 0.158156 0.471731
vt 0.250000 0.490000
vt 0.203179 0.485389
vt 0.116663 0.449553
vt 0.080295 0.419706
vt 0.050447 0.383337
vt 0.014612 0.296822
vt 0.028269 0.158156
vt 0.010000 0.250000
vt 0.014611 0.203179
vt 0.050447 0.116663
vt 0.080294 0.080294
vt 0.116663 0.050447
vt 0.203178 0.014612
vt 0.250000 0.010000
vt 0.296822 0.014612
vt 0.341844 0.028269
vt 0.383337 0.050447
vt 0.471731 0.158156
vt 0.419706 0.080294
vt 0.449553 0.116663
vt 0.485388 0.203178
vt 0.471731 0.341844
vt 0.490000 0.250000
vt 0.485388 0.296822
vt 0.449553 0.383337
vt 0.419706 0.419706
vt 0.383337 0.449553
vt 1.000000 1.000000
vn -0.9834 0.1813 0.0074
vn 0.0074 0.1813 -0.9834
vn 0.9854 0.1703 0.0000
vn 0.0000 0.1703 0.9854
vn 0.0236 -0.9994 0.0236
vn 0.0000 1.0000 0.0000
vn -0.1322 -0.9358 0.3267
vn 0.0636 -0.9399 0.3355
vn 0.2570 -0.9079 0.3313
vn 0.4404 -0.8409 0.3144
vn 0.6070 -0.7417 0.2854
vn 0.7502 -0.6139 0.2455
vn 0.8646 -0.4626 0.1961
vn 0.9458 -0.2935 0.1392
vn 0.9906 -0.1131 0.0769
vn 0.9974 0.0717 0.0117
vn 0.9658 0.2537 -0.0540
vn 0.8971 0.4259 -0.1176
vn 0.7939 0.5818 -0.1766
vn 0.6603 0.7153 -0.2289
vn 0.5012 0.8213 -0.2724
vn 0.3229 0.8958 -0.3054
vn 0.1322 0.9358 -0.3267
vn -0.0636 0.9399 -0.3355
vn -0.2570 0.9079 -0.3313
vn -0.4404 0.8409 -0.3144
vn -0.6070 0.7417 -0.2854
vn -0.7502 0.6139 -0.2455
vn -0.8646 0.4626 -0.1961
vn -0.9458 0.2935 -0.1392
vn -0.9906 0.1131 -0.0769
vn -0.9974 -0.0717 -0.0117
vn -0.9658 -0.2537 0.0540
vn -0.8971 -0.4259 0.1176
vn -0.7939 -0.5818 0.1766
vn -0.6603 -0.7153 0.2289
vn -0.5012 -0.8213 0.2724
vn -0.3229 -0.8958 0.3054
vn -0.0350 0.3338 0.9420
vn 0.0350 -0.3338 -0.9420
vn 0.4405 -0.8409 0.3144
vn -0.9840 0.1780 0.0000
vn 0.0000 0.1780 -0.9840
vn 0.0000 -1.0000 0.0000
vn -0.0350 0.3339 0.9420
vn -0.0350 0.3337 0.9420
vn -0.0351 0.3338 0.9420
vn 0.0350 -0.3339 -0.9420
vn 0.0351 -0.3338 -0.9420
vn 0.0350 -0.3337 -0.9420
vn 0.0351 -0.3340 -0.9419
vn 0.0351 -0.3339 -0.9419
s off
f 1/1/1 4/2/1 3/3/1
f 4/2/2 7/4/2 3/3/2
f 8/5/3 5/6/3 7/4/3
f 5/6/4 2/7/4 1/8/4
f 7/4/5 1/9/5 3/10/5
f 4/11/6 6/12/6 8/5/6
f 9/13/7 12/14/7 11/15/7
f 12/14/8 13/16/8 11/15/8
f 13/16/9 16/17/9 15/18/9
f 15/18/10 18/19/10 17/20/10
f 17/20/11 20/21/11 19/22/11
f 19/22/12 22/23/12 21/24/12
f 21/24/13 24/25/13 23/26/13
f 24/25/14 25/27/14 23/26/14
f 25/27/15 28/28/15 27/29/15
f 28/28/16 29/30/16 27/29/16
f 30/31/17 31/32/17 29/30/17
f 32/33/18 33/34/18 31/32/18
f 34/35/19 35/36/19 33/34/19
f 36/37/20 37/38/20 35/36/20
f 38/39/21 39/40/21 37/38/21
f 39/40/22 42/41/22 41/42/22
f 41/42/23 44/43/23 43/44/23
f 44/43/24 45/45/24 43/44/24
f 45/45/25 48/46/25 47/47/25
f 48/46/26 49/48/26 47/47/26
f 49/48/27 52/49/27 51/50/27
f 52/49/28 53/51/28 51/50/28
f 54/52/29 55/53/29 53/51/29
f 56/54/30 57/55/30 55/53/30
f 58/56/31 59/57/31 57/55/31
f 60/58/32 61/59/32 59/57/32
f 62/60/33 63/61/33 61/59/33
f 63/61/34 66/62/34 65/63/34
f 66/62/35 67/64/35 65/63/35
f 68/65/36 69/66/36 67/64/36
f 22/23/12 78/67/12 79/68/12
f 70/69/37 71/70/37 69/66/37
f 72/71/38 9/72/38 71/70/38
f 71/73/39 23/74/39 39/75/39
f 75/76/40 99/77/40 91/78/40
f 38/39/21 88/79/21 40/80/21
f 56/54/30 97/81/30 58/56/30
f 14/82/8 74/83/8 75/84/8
f 32/33/17 83/85/17 84/86/17
f 50/87/26 92/88/26 93/89/26
f 66/62/35 102/90/35 68/65/35
f 24/25/13 79/68/13 80/91/13
f 42/41/22 88/79/22 89/92/22
f 60/58/31 97/81/31 98/93/31
f 14/82/9 76/94/9 16/17/9
f 32/33/18 85/95/18 34/35/18
f 52/49/27 93/89/27 94/96/27
f 70/69/36 102/90/36 103/97/36
f 26/98/14 80/91/14 81/99/14
f 44/43/23 89/92/23 90/100/23
f 60/58/32 99/101/32 62/60/32
f 18/19/41 76/94/41 77/102/41
f 34/35/19 86/103/19 36/37/19
f 52/49/28 95/104/28 54/52/28
f 70/69/37 104/105/37 72/71/37
f 26/98/15 82/106/15 28/28/15
f 46/107/24 90/100/24 91/108/24
f 62/60/33 100/109/33 64/110/33
f 20/21/11 77/102/11 78/67/11
f 38/39/20 86/103/20 87/111/20
f 56/54/29 95/104/29 96/112/29
f 10/113/7 74/83/7 12/14/7
f 10/114/38 104/105/38 73/115/38
f 30/31/16 82/106/16 83/85/16
f 48/46/25 91/108/25 92/88/25
f 66/62/34 100/109/34 101/116/34
f 1/1/42 2/117/42 4/2/42
f 4/2/43 8/5/43 7/4/43
f 8/5/3 6/12/3 5/6/3
f 5/6/4 6/12/4 2/7/4
f 7/4/44 5/6/44 1/9/44
f 4/11/6 2/118/6 6/12/6
f 9/13/7 10/113/7 12/14/7
f 12/14/8 14/82/8 13/16/8
f 13/16/9 14/82/9 16/17/9
f 15/18/10 16/17/10 18/19/10
f 17/20/11 18/19/11 20/21/11
f 19/22/12 20/21/12 22/23/12
f 21/24/13 22/23/13 24/25/13
f 24/25/14 26/98/14 25/27/14
f 25/27/15 26/98/15 28/28/15
f 28/28/16 30/31/16 29/30/16
f 30/31/17 32/33/17 31/32/17
f 32/33/18 34/35/18 33/34/18
f 34/35/19 36/37/19 35/36/19
f 36/37/20 38/39/20 37/38/20
f 38/39/21 40/80/21 39/40/21
f 39/40/22 40/80/22 42/41/22
f 41/42/23 42/41/23 44/43/23
f 44/43/24 46/107/24 45/45/24
f 45/45/25 46/107/25 48/46/25
f 48/46/26 50/87/26 49/48/26
f 49/48/27 50/87/27 52/49/27
f 52/49/28 54/52/28 53/51/28
f 54/52/29 56/54/29 55/53/29
f 56/54/30 58/56/30 57/55/30
f 58/56/31 60/58/31 59/57/31
f 60/58/32 62/60/32 61/59/32
f 62/60/33 64/110/33 63/61/33
f 63/61/34 64/110/34 66/62/34
f 66/62/35 68/65/35 67/64/35
f 68/65/36 70/69/36 69/66/36
f 22/23/12 20/21/12 78/67/12
f 70/69/37 72/71/37 71/70/37
f 72/71/38 10/114/38 9/72/38
f 71/73/45 9/119/45 11/120/45
f 11/120/46 13/121/46 15/122/46
f 15/122/46 17/123/46 19/124/46
f 19/124/45 21/125/45 23/74/45
f 23/74/39 25/126/39 31/127/39
f 25/126/39 27/128/39 31/127/39
f 27/128/39 29/129/39 31/127/39
f 31/127/47 33/130/47 35/131/47
f 35/131/47 37/132/47 39/75/47
f 39/75/39 41/133/39 43/134/39
f 43/134/39 45/135/39 47/136/39
f 47/136/39 49/137/39 55/138/39
f 49/137/39 51/139/39 55/138/39
f 51/139/47 53/140/47 55/138/47
f 55/138/47 57/141/47 59/142/47
f 59/142/45 61/143/45 63/144/45
f 63/144/45 65/145/45 67/146/45
f 67/146/45 69/147/45 71/73/45
f 71/73/39 11/120/39 23/74/39
f 11/120/39 15/122/39 23/74/39
f 15/122/39 19/124/39 23/74/39
f 31/127/39 35/131/39 39/75/39
f 39/75/39 43/134/39 55/138/39
f 43/134/39 47/136/39 55/138/39
f 55/138/39 59/142/39 63/144/39
f 63/144/39 67/146/39 71/73/39
f 23/74/39 31/127/39 39/75/39
f 55/138/39 63/144/39 39/75/39
f 63/144/39 71/73/39 39/75/39
f 75/76/48 74/148/48 103/149/48
f 74/148/40 73/150/40 103/149/40
f 73/150/49 104/151/49 103/149/49
f 103/149/40 102/152/40 99/77/40
f 102/152/49 101/153/49 99/77/49
f 101/153/40 100/154/40 99/77/40
f 99/77/49 98/155/49 95/156/49
f 98/155/49 97/157/49 95/156/49
f 97/157/40 96/158/40 95/156/40
f 95/156/50 94/159/50 93/160/50
f 93/160/51 92/161/51 91/78/51
f 91/78/40 90/162/40 89/163/40
f 89/163/50 88/164/50 87/165/50
f 87/165/49 86/166/49 83/167/49
f 86/166/40 85/168/40 83/167/40
f 85/168/49 84/169/49 83/167/49
f 83/167/40 82/170/40 79/171/40
f 82/170/40 81/172/40 79/171/40
f 81/172/52 80/173/52 79/171/52
f 79/171/50 78/174/50 77/175/50
f 77/175/40 76/176/40 75/76/40
f 95/156/40 93/160/40 99/77/40
f 93/160/40 91/78/40 99/77/40
f 91/78/40 89/163/40 83/167/40
f 89/163/40 87/165/40 83/167/40
f 79/171/40 77/175/40 75/76/40
f 75/76/40 103/149/40 99/77/40
f 83/167/40 79/171/40 91/78/40
f 79/171/40 75/76/40 91/78/40
f 38/39/21 87/111/21 88/79/21
f 56/54/30 96/112/30 97/81/30
f 14/82/8 12/14/8 74/83/8
f 32/33/17 30/31/17 83/85/17
f 50/87/26 48/46/26 92/88/26
f 66/62/35 101/116/35 102/90/35
f 24/25/13 22/23/13 79/68/13
f 42/41/22 40/80/22 88/79/22
f 60/58/31 58/56/31 97/81/31
f 14/82/9 75/84/9 76/94/9
f 32/33/18 84/86/18 85/95/18
f 52/49/27 50/87/27 93/89/27
f 70/69/36 68/65/36 102/90/36
f 26/98/14 24/25/14 80/91/14
f 44/43/23 42/41/23 89/92/23
f 60/58/32 98/93/32 99/101/32
f 18/19/10 16/17/10 76/94/10
f 34/35/19 85/95/19 86/103/19
f 52/49/28 94/96/28 95/104/28
f 70/69/37 103/97/37 104/105/37
f 26/98/15 81/99/15 82/106/15
f 46/107/24 44/43/24 90/100/24
f 62/60/33 99/101/33 100/109/33
f 20/21/11 18/19/11 77/102/11
f 38/39/20 36/37/20 86/103/20
f 56/54/29 54/52/29 95/104/29
f 10/113/7 73/177/7 74/83/7
f 10/114/38 72/71/38 104/105/38
f 30/31/16 28/28/16 82/106/16
f 48/46/25 46/107/25 91/108/25
f 66/62/34 64/110/34 100/109/34
