# Blender v2.90.1 OBJ File: ''
# www.blender.org
mtllib town.mtl
o Cube_Cube.002
v 3.195064 2.641361 1.269800
v 3.270802 0.042796 3.125916
v 4.731668 0.042797 0.976868
v 2.977870 2.641361 1.589309
v 1.121755 0.042797 1.665048
v 2.658360 2.641361 1.372115
v 2.582622 0.042797 -0.483999
v 2.875554 2.641361 1.052606
v 3.686553 0.238282 0.235239
v 3.573617 0.037395 0.401376
v 3.686553 0.037395 0.235239
v 3.573617 0.238282 0.401376
v 3.407481 0.037395 0.288440
v 3.407481 0.238282 0.288440
v 3.520416 0.037395 0.122303
v 3.520416 0.238282 0.122303
v 3.686553 0.419729 0.235239
v 3.573617 0.218841 0.401376
v 3.686553 0.218841 0.235239
v 3.573617 0.419729 0.401376
v 3.407481 0.218841 0.288440
v 3.407481 0.419729 0.288440
v 3.520416 0.218841 0.122303
v 3.520416 0.419729 0.122303
v -0.936324 0.187537 4.679648
v -0.860491 0.046230 4.560412
v -0.936324 0.046230 4.679648
v -0.860491 0.187537 4.560412
v -0.741256 0.046230 4.636245
v -0.741256 0.187537 4.636245
v -0.817089 0.046230 4.755481
v -0.817089 0.187537 4.755481
v -0.936324 0.315169 4.679648
v -0.860491 0.173862 4.560412
v -0.936324 0.173862 4.679648
v -0.860491 0.315169 4.560412
v -0.741256 0.173862 4.636245
v -0.741256 0.315169 4.636245
v -0.817089 0.173862 4.755481
v -0.817089 0.315169 4.755481
v -0.612996 1.877897 3.941702
v -0.706133 0.050031 2.638320
v -1.687068 0.050030 4.180677
v -0.467156 1.877897 3.712393
v 0.836225 0.050030 3.619254
v -0.237846 1.877897 3.858232
v -0.144709 0.050030 5.161611
v -0.383686 1.877897 4.087542
v 1.904918 0.238281 5.361557
v 1.904918 0.037394 5.160669
v 1.904918 0.037394 5.361557
v 1.904918 0.238281 5.160669
v 2.105806 0.037394 5.160669
v 2.105806 0.238281 5.160669
v 2.105806 0.037394 5.361557
v 2.105806 0.238281 5.361557
v 1.904918 0.419728 5.361557
v 1.904918 0.218840 5.160669
v 1.904918 0.218840 5.361557
v 1.904918 0.419728 5.160669
v 2.105806 0.218840 5.160669
v 2.105806 0.419728 5.160669
v 2.105806 0.218840 5.361557
v 2.105806 0.419728 5.361557
v 1.729776 2.641360 4.229656
v 0.623664 0.042797 2.737201
v 0.623664 0.042796 5.335765
v 1.729776 2.641360 3.843314
v 3.222229 0.042797 2.737201
v 2.116117 2.641360 3.843314
v 3.222229 0.042796 5.335765
v 2.116117 2.641360 4.229656
v -0.512859 0.187538 1.346342
v -0.391264 0.046231 1.418331
v -0.512859 0.046231 1.346342
v -0.391264 0.187538 1.418331
v -0.463253 0.046231 1.539926
v -0.463253 0.187538 1.539926
v -0.584848 0.046231 1.467937
v -0.584848 0.187538 1.467937
v -0.512859 0.315170 1.346342
v -0.391264 0.173863 1.418331
v -0.512859 0.173863 1.346342
v -0.391264 0.315170 1.418331
v -0.463253 0.173863 1.539926
v -0.463253 0.315170 1.539926
v -0.584848 0.173863 1.467937
v -0.584848 0.315170 1.467937
v 0.235032 1.877898 1.645953
v 1.534775 0.050031 1.511262
v -0.038105 0.050031 0.580056
v 0.468879 1.877898 1.784400
v 0.603570 0.050030 3.084142
v 0.330432 1.877898 2.018247
v -0.969311 0.050031 2.152937
v 0.096585 1.877898 1.879801
vt 0.625000 0.000000
vt 0.375000 0.250000
vt 0.375000 0.000000
vt 0.625000 0.250000
vt 0.375000 0.500000
vt 0.625000 0.500000
vt 0.375000 0.750000
vt 0.625000 0.750000
vt 0.375000 1.000000
vt 0.125000 0.750000
vt 0.125000 0.500000
vt 0.875000 0.500000
vt 0.625000 1.000000
vt 0.875000 0.750000
vt 0.625000 0.000000
vt 0.375000 0.250000
vt 0.375000 0.000000
vt 0.625000 0.250000
vt 0.375000 0.500000
vt 0.625000 0.500000
vt 0.375000 0.750000
vt 0.625000 0.750000
vt 0.375000 1.000000
vt 0.125000 0.750000
vt 0.125000 0.500000
vt 0.875000 0.500000
vt 0.625000 1.000000
vt 0.875000 0.750000
vt 0.625000 0.000000
vt 0.375000 0.250000
vt 0.375000 0.000000
vt 0.625000 0.250000
vt 0.375000 0.500000
vt 0.625000 0.500000
vt 0.375000 0.750000
vt 0.625000 0.750000
vt 0.375000 1.000000
vt 0.125000 0.750000
vt 0.125000 0.500000
vt 0.875000 0.500000
vt 0.625000 1.000000
vt 0.875000 0.750000
vt 0.625000 0.000000
vt 0.375000 0.250000
vt 0.375000 0.000000
vt 0.625000 0.250000
vt 0.375000 0.500000
vt 0.625000 0.500000
vt 0.375000 0.750000
vt 0.625000 0.750000
vt 0.375000 1.000000
vt 0.125000 0.750000
vt 0.125000 0.500000
vt 0.875000 0.500000
vt 0.625000 1.000000
vt 0.875000 0.750000
vt 0.625000 0.000000
vt 0.375000 0.250000
vt 0.375000 0.000000
vt 0.625000 0.250000
vt 0.375000 0.500000
vt 0.625000 0.500000
vt 0.375000 0.750000
vt 0.625000 0.750000
vt 0.375000 1.000000
vt 0.125000 0.750000
vt 0.125000 0.500000
vt 0.875000 0.500000
vt 0.625000 1.000000
vt 0.875000 0.750000
vt 0.625000 0.000000
vt 0.375000 0.250000
vt 0.375000 0.000000
vt 0.625000 0.250000
vt 0.375000 0.500000
vt 0.625000 0.500000
vt 0.375000 0.750000
vt 0.625000 0.750000
vt 0.375000 1.000000
vt 0.125000 0.750000
vt 0.125000 0.500000
vt 0.875000 0.500000
vt 0.625000 1.000000
vt 0.875000 0.750000
vt 0.625000 0.000000
vt 0.375000 0.250000
vt 0.375000 0.000000
vt 0.625000 0.250000
vt 0.375000 0.500000
vt 0.625000 0.500000
vt 0.375000 0.750000
vt 0.625000 0.750000
vt 0.375000 1.000000
vt 0.125000 0.750000
vt 0.125000 0.500000
vt 0.875000 0.500000
vt 0.625000 1.000000
vt 0.875000 0.750000
vt 0.625000 0.000000
vt 0.375000 0.250000
vt 0.375000 0.000000
vt 0.625000 0.250000
vt 0.375000 0.500000
vt 0.625000 0.500000
vt 0.375000 0.750000
vt 0.625000 0.750000
vt 0.375000 1.000000
vt 0.125000 0.750000
vt 0.125000 0.500000
vt 0.875000 0.500000
vt 0.625000 1.000000
vt 0.875000 0.750000
vt 0.625000 0.000000
vt 0.375000 0.250000
vt 0.375000 0.000000
vt 0.625000 0.250000
vt 0.375000 0.500000
vt 0.625000 0.500000
vt 0.375000 0.750000
vt 0.625000 0.750000
vt 0.375000 1.000000
vt 0.125000 0.750000
vt 0.125000 0.500000
vt 0.875000 0.500000
vt 0.625000 1.000000
vt 0.875000 0.750000
vt 0.625000 0.000000
vt 0.375000 0.250000
vt 0.375000 0.000000
vt 0.625000 0.250000
vt 0.375000 0.500000
vt 0.625000 0.500000
vt 0.375000 0.750000
vt 0.625000 0.750000
vt 0.375000 1.000000
vt 0.125000 0.750000
vt 0.125000 0.500000
vt 0.875000 0.500000
vt 0.625000 1.000000
vt 0.875000 0.750000
vt 0.625000 0.000000
vt 0.375000 0.250000
vt 0.375000 0.000000
vt 0.625000 0.250000
vt 0.375000 0.500000
vt 0.625000 0.500000
vt 0.375000 0.750000
vt 0.625000 0.750000
vt 0.375000 1.000000
vt 0.125000 0.750000
vt 0.125000 0.500000
vt 0.875000 0.500000
vt 0.625000 1.000000
vt 0.875000 0.750000
vt 0.625000 0.000000
vt 0.375000 0.250000
vt 0.375000 0.000000
vt 0.625000 0.250000
vt 0.375000 0.500000
vt 0.625000 0.500000
vt 0.375000 0.750000
vt 0.625000 0.750000
vt 0.375000 1.000000
vt 0.125000 0.750000
vt 0.125000 0.500000
vt 0.875000 0.500000
vt 0.625000 1.000000
vt 0.875000 0.750000
vn 0.7609 0.3917 0.5173
vn -0.5173 0.3917 0.7609
vn -0.7609 0.3917 -0.5173
vn 0.5173 0.3917 -0.7609
vn -0.0000 -1.0000 -0.0000
vn 0.0000 1.0000 0.0000
vn 0.8270 0.0000 0.5622
vn -0.5622 0.0000 0.8270
vn -0.8270 0.0000 -0.5622
vn 0.5622 0.0000 -0.8270
vn -0.8438 0.0000 -0.5367
vn 0.5367 0.0000 -0.8438
vn 0.5366 0.0000 -0.8438
vn 0.8438 0.0000 0.5367
vn 0.8438 0.0000 0.5366
vn -0.5367 0.0000 0.8438
vn -0.7764 0.3917 -0.4938
vn 0.4938 0.3917 -0.7764
vn 0.7764 0.3917 0.4938
vn -0.4938 0.3917 0.7764
vn -1.0000 0.0000 0.0000
vn 0.0000 0.0000 -1.0000
vn 1.0000 0.0000 0.0000
vn 0.0000 0.0000 1.0000
vn -0.9201 0.3917 0.0000
vn 0.0000 0.3917 -0.9201
vn 0.9201 0.3917 0.0000
vn 0.0000 0.3917 0.9201
vn 0.5094 0.0000 -0.8605
vn 0.5095 0.0000 -0.8605
vn 0.8605 0.0000 0.5094
vn -0.5095 0.0000 0.8605
vn -0.8605 0.0000 -0.5094
vn -0.8605 0.0000 -0.5095
vn -0.5094 0.0000 0.8605
vn 0.4688 0.3917 -0.7918
vn 0.7918 0.3917 0.4688
vn -0.4687 0.3917 0.7918
vn -0.7918 0.3917 -0.4688
usemtl Default_OBJ
s 1
f 1/1/1 2/2/1 3/3/1
f 4/4/2 5/5/2 2/2/2
f 6/6/3 7/7/3 5/5/3
f 8/8/4 3/9/4 7/7/4
f 5/5/5 3/10/5 2/11/5
f 4/12/6 8/8/6 6/6/6
f 1/1/1 4/4/1 2/2/1
f 4/4/2 6/6/2 5/5/2
f 6/6/3 8/8/3 7/7/3
f 8/8/4 1/13/4 3/9/4
f 5/5/5 7/7/5 3/10/5
f 4/12/6 1/14/6 8/8/6
f 9/15/7 10/16/7 11/17/7
f 12/18/8 13/19/8 10/16/8
f 14/20/9 15/21/9 13/19/9
f 16/22/10 11/23/10 15/21/10
f 13/19/5 11/24/5 10/25/5
f 12/26/6 16/22/6 14/20/6
f 9/15/7 12/18/7 10/16/7
f 12/18/8 14/20/8 13/19/8
f 14/20/9 16/22/9 15/21/9
f 16/22/10 9/27/10 11/23/10
f 13/19/5 15/21/5 11/24/5
f 12/26/6 9/28/6 16/22/6
f 17/29/7 18/30/7 19/31/7
f 20/32/8 21/33/8 18/30/8
f 22/34/9 23/35/9 21/33/9
f 24/36/10 19/37/10 23/35/10
f 21/33/5 19/38/5 18/39/5
f 20/40/6 24/36/6 22/34/6
f 17/29/7 20/32/7 18/30/7
f 20/32/8 22/34/8 21/33/8
f 22/34/9 24/36/9 23/35/9
f 24/36/10 17/41/10 19/37/10
f 21/33/5 23/35/5 19/38/5
f 20/40/6 17/42/6 24/36/6
f 25/43/11 26/44/11 27/45/11
f 28/46/12 29/47/12 26/44/13
f 30/48/14 31/49/14 29/47/15
f 32/50/16 27/51/16 31/49/16
f 29/47/5 27/52/5 26/53/5
f 28/54/6 32/50/6 30/48/6
f 25/43/11 28/46/11 26/44/11
f 28/46/12 30/48/12 29/47/12
f 30/48/14 32/50/14 31/49/14
f 32/50/16 25/55/16 27/51/16
f 29/47/5 31/49/5 27/52/5
f 28/54/6 25/56/6 32/50/6
f 33/57/11 34/58/11 35/59/11
f 36/60/12 37/61/12 34/58/12
f 38/62/14 39/63/14 37/61/14
f 40/64/16 35/65/16 39/63/16
f 37/61/5 35/66/5 34/67/5
f 36/68/6 40/64/6 38/62/6
f 33/57/11 36/60/11 34/58/11
f 36/60/12 38/62/12 37/61/12
f 38/62/14 40/64/14 39/63/14
f 40/64/16 33/69/16 35/65/16
f 37/61/5 39/63/5 35/66/5
f 36/68/6 33/70/6 40/64/6
f 41/71/17 42/72/17 43/73/17
f 44/74/18 45/75/18 42/72/18
f 46/76/19 47/77/19 45/75/19
f 48/78/20 43/79/20 47/77/20
f 45/75/5 43/80/5 42/81/5
f 44/82/6 48/78/6 46/76/6
f 41/71/17 44/74/17 42/72/17
f 44/74/18 46/76/18 45/75/18
f 46/76/19 48/78/19 47/77/19
f 48/78/20 41/83/20 43/79/20
f 45/75/5 47/77/5 43/80/5
f 44/82/6 41/84/6 48/78/6
f 49/85/21 50/86/21 51/87/21
f 52/88/22 53/89/22 50/86/22
f 54/90/23 55/91/23 53/89/23
f 56/92/24 51/93/24 55/91/24
f 53/89/5 51/94/5 50/95/5
f 52/96/6 56/92/6 54/90/6
f 49/85/21 52/88/21 50/86/21
f 52/88/22 54/90/22 53/89/22
f 54/90/23 56/92/23 55/91/23
f 56/92/24 49/97/24 51/93/24
f 53/89/5 55/91/5 51/94/5
f 52/96/6 49/98/6 56/92/6
f 57/99/21 58/100/21 59/101/21
f 60/102/22 61/103/22 58/100/22
f 62/104/23 63/105/23 61/103/23
f 64/106/24 59/107/24 63/105/24
f 61/103/5 59/108/5 58/109/5
f 60/110/6 64/106/6 62/104/6
f 57/99/21 60/102/21 58/100/21
f 60/102/22 62/104/22 61/103/22
f 62/104/23 64/106/23 63/105/23
f 64/106/24 57/111/24 59/107/24
f 61/103/5 63/105/5 59/108/5
f 60/110/6 57/112/6 64/106/6
f 65/113/25 66/114/25 67/115/25
f 68/116/26 69/117/26 66/114/26
f 70/118/27 71/119/27 69/117/27
f 72/120/28 67/121/28 71/119/28
f 69/117/5 67/122/5 66/123/5
f 68/124/6 72/120/6 70/118/6
f 65/113/25 68/116/25 66/114/25
f 68/116/26 70/118/26 69/117/26
f 70/118/27 72/120/27 71/119/27
f 72/120/28 65/125/28 67/121/28
f 69/117/5 71/119/5 67/122/5
f 68/124/6 65/126/6 72/120/6
f 73/127/29 74/128/29 75/129/30
f 76/130/31 77/131/31 74/128/31
f 78/132/32 79/133/32 77/131/32
f 80/134/33 75/135/33 79/133/33
f 77/131/5 75/136/5 74/137/5
f 76/138/6 80/134/6 78/132/6
f 73/127/29 76/130/29 74/128/29
f 76/130/31 78/132/31 77/131/31
f 78/132/32 80/134/32 79/133/32
f 80/134/33 73/139/34 75/135/33
f 77/131/5 79/133/5 75/136/5
f 76/138/6 73/140/6 80/134/6
f 81/141/29 82/142/29 83/143/29
f 84/144/31 85/145/31 82/142/31
f 86/146/32 87/147/32 85/145/35
f 88/148/34 83/149/34 87/147/34
f 85/145/5 83/150/5 82/151/5
f 84/152/6 88/148/6 86/146/6
f 81/141/29 84/144/29 82/142/29
f 84/144/31 86/146/31 85/145/31
f 86/146/32 88/148/32 87/147/32
f 88/148/34 81/153/34 83/149/34
f 85/145/5 87/147/5 83/150/5
f 84/152/6 81/154/6 88/148/6
f 89/155/36 90/156/36 91/157/36
f 92/158/37 93/159/37 90/156/37
f 94/160/38 95/161/38 93/159/38
f 96/162/39 91/163/39 95/161/39
f 93/159/5 91/164/5 90/165/5
f 92/166/6 96/162/6 94/160/6
f 89/155/36 92/158/36 90/156/36
f 92/158/37 94/160/37 93/159/37
f 94/160/38 96/162/38 95/161/38
f 96/162/39 89/167/39 91/163/39
f 93/159/5 95/161/5 91/164/5
f 92/166/6 89/168/6 96/162/6
